<svg version="1.0" xmlns="http://www.w3.org/2000/svg"
	width="24" height="24" viewBox="0 0 512.000000 512.000000"
	preserveAspectRatio="xMidYMid meet">

	<g transform="translate(0.000000,512.000000) scale(0.100000,-0.100000)"
		fill="#000000" stroke="none">
		<path
			d="M274 3756 c-57 -18 -102 -54 -132 -106 -23 -38 -27 -59 -30 -141 -4
-92 -3 -97 19 -113 17 -11 45 -16 97 -16 l74 0 -6 -32 c-29 -158 -33 -350 -10
-507 14 -98 43 -195 120 -401 25 -67 28 -88 28 -200 1 -138 -14 -211 -67 -335
-77 -183 -101 -345 -68 -473 19 -75 39 -86 149 -80 145 7 190 49 217 201 18
101 44 172 86 233 95 139 133 278 126 459 -6 131 -25 221 -82 372 -38 101 -65
234 -65 318 0 82 3 85 76 85 l64 0 0 -64 c0 -100 26 -224 74 -352 24 -66 49
-144 54 -175 31 -165 23 -360 -24 -586 -34 -165 -35 -163 100 -163 l104 0 28
33 c15 17 40 60 55 94 94 205 111 475 48 763 -11 52 -23 151 -26 218 -6 117
-7 124 -29 134 -18 8 -29 7 -49 -6 -24 -16 -25 -20 -25 -120 0 -72 8 -144 27
-237 23 -116 27 -159 27 -319 0 -173 -2 -191 -27 -273 -15 -49 -39 -110 -52
-138 -22 -43 -29 -49 -56 -49 -25 0 -29 3 -24 19 18 58 45 302 45 412 0 158
-19 272 -70 408 -53 141 -70 219 -70 319 l0 82 1580 0 1580 0 0 -82 c0 -100
-17 -178 -70 -320 -59 -157 -73 -258 -67 -458 5 -140 23 -295 43 -362 4 -14
-1 -18 -25 -18 -27 0 -34 6 -56 49 -13 28 -37 89 -52 138 -25 82 -27 101 -27
273 0 161 4 202 27 319 32 160 38 329 11 355 -19 19 -58 21 -71 4 -6 -7 -13
-67 -16 -133 -3 -66 -15 -163 -26 -215 -35 -159 -46 -315 -33 -443 18 -176 72
-339 136 -414 l28 -33 104 0 c135 0 134 -2 100 163 -47 230 -55 418 -25 585 6
31 31 110 55 176 48 128 74 252 74 353 l0 64 68 -3 67 -3 3 -63 c4 -91 -22
-226 -68 -349 -75 -200 -99 -399 -65 -558 16 -75 66 -189 114 -259 42 -61 68
-132 86 -232 18 -104 34 -137 86 -171 35 -23 54 -28 130 -31 112 -6 131 5 150
80 33 128 9 290 -68 473 -53 123 -67 197 -67 335 0 113 2 132 28 200 75 201
106 303 120 401 20 132 20 293 1 424 -8 55 -15 103 -15 108 0 4 33 7 73 7 51
0 79 5 96 16 22 16 23 21 19 113 -3 82 -7 103 -30 142 -30 51 -84 92 -143 108
-63 17 -4506 14 -4561 -3z m4566 -111 c37 -19 60 -63 60 -115 l0 -40 -2340 0
-2340 0 0 40 c0 23 7 54 15 70 33 64 -149 59 2323 60 1995 0 2256 -2 2282 -15z
m-4125 -334 c-53 -107 -76 -199 -82 -337 -7 -153 4 -217 72 -419 110 -327 98
-492 -55 -735 -45 -71 -74 -156 -90 -258 -13 -84 -32 -102 -105 -102 -63 0
-65 3 -65 103 0 90 19 169 64 274 70 164 81 220 81 403 -1 163 -1 166 -34 250
-105 266 -124 352 -124 560 0 117 13 255 29 313 5 15 22 17 175 17 l169 0 -35
-69z m3556 22 c32 -46 88 -167 89 -190 0 -10 -367 -13 -1800 -13 -1433 0
-1800 3 -1800 13 1 23 57 144 89 190 l32 47 1679 0 1679 0 32 -47z m443 30
c16 -56 29 -196 29 -313 0 -208 -18 -287 -123 -560 -30 -77 -34 -98 -38 -216
-5 -165 11 -254 77 -419 57 -140 71 -200 71 -295 0 -96 -2 -100 -65 -100 -73
0 -92 18 -105 102 -16 102 -45 187 -90 258 -71 114 -101 185 -118 283 -22 135
-7 244 62 451 69 203 80 267 73 420 -6 138 -29 230 -82 337 l-35 69 169 0
c153 0 170 -2 175 -17z" />
	</g>
</svg>
